<?xml version="1.0" encoding="utf-8"?>
<!-- Generator: Adobe Illustrator 27.6.1, SVG Export Plug-In . SVG Version: 6.00 Build 0)  -->
<svg version="1.1" id="visual" xmlns="http://www.w3.org/2000/svg" xmlns:xlink="http://www.w3.org/1999/xlink" x="0px" y="0px"
	 viewBox="0 0 900 600" style="enable-background:new 0 0 900 600;" xml:space="preserve">
<style type="text/css">
	.st0{fill:#4FACF7;}
	.st1{fill:#4395D9;}
	.st2{fill:#377EBB;}
	.st3{fill:#6FB9F8;}
</style>
<path class="st0" d="M0,235l30,5c30,5,90,15,150,24s120,17,180,21s120,4,180-1s120-15,180-21s120-8,150-9l30-1v-80l-30,6
	c-30,6-90,18-150,26s-120,12-180,12s-120-4-180-10s-120-14-180-23S60,165,30,160l-30-5V235z"/>
<path class="st1" d="M0,433l30-6c30-6,90-18,150-17s120,15,180,25s120,16,180,23s120,15,180,11s120-20,150-28l30-8V251l-30,1
	c-30,1-90,3-150,9s-120,16-180,21s-120,5-180,1s-120-12-180-21S60,243,30,238l-30-5V433z"/>
<path class="st2" d="M0,601h30c30,0,90,0,150,0s120,0,180,0s120,0,180,0s120,0,180,0s120,0,150,0h30V431l-30,8c-30,8-90,24-150,28
	s-120-4-180-11s-120-13-180-23s-120-24-180-25S60,419,30,425l-30,6V601z"/>
<path class="st3" d="M870,53.9c-30,4-90,12-150,18s-120,10-180,7s-120-13-180-15s-120,4-180-2s-120-24-150-33l-30-9V99v6.9V179h900
	v-55.1V99V49.9L870,53.9z"/>
</svg>
