<?xml version="1.0" encoding="UTF-8"?><svg id="Calque_2" xmlns="http://www.w3.org/2000/svg" viewBox="0 0 122.99 38.64"><g id="visual"><path d="m15.03,1.12c.34-.52.73-.77,1.16-.77.07,0,.14,0,.21.02.43.09.66.47.69,1.14v15.21c.52-.08,1.08-.15,1.69-.19.34.01.52.3.54.86-.04.42-.21.7-.51.83-.61.18-1.2.27-1.78.28l.02,7.8c.02.34-.27.57-.88.7-.54-.01-.83-.22-.86-.63l-.02-7.47c-1.7.35-3.2.55-4.51.61s-2.92-.04-4.84-.29l-4.45,7.38c-.18.19-.39.28-.63.28-.15,0-.32-.04-.49-.11-.25-.25-.37-.48-.37-.7,0-.09.02-.19.07-.28L15.03,1.12Zm.02,3.16l-7.95,13.06c1.23.23,2.4.36,3.5.37s2.69-.22,4.76-.69V4.31c.06-.4-.05-.4-.32-.02Z"/><path d="m21.57,16.93c.3-.23.61-.35.91-.35.11,0,.21.01.32.04.43.11.64.35.63.74,1.57-.21,2.56-.12,2.97.28.39.41.43,1.29.12,2.64-.48,1.95-.69,3.2-.64,3.76s.28.85.68.86c.38-.01.93-.35,1.66-1s1.78-1.68,3.16-3.08c.7-.22,1.05-.01,1.05.63,0,.15-.02.3-.05.44-1.55,1.58-2.79,2.8-3.74,3.66-.95.84-1.72,1.27-2.32,1.27-.79-.02-1.35-.31-1.69-.86-.4-.73-.53-1.69-.4-2.88.06-.49.24-1.28.54-2.37s.41-1.74.33-1.95c-.11-.22-.7-.25-1.79-.07l-3.36,3.88c-.67.08-1-.25-1-.98l2.65-3.13c-.25-.16-.37-.39-.38-.68s.11-.57.36-.83Z"/><path d="m34.49,8.53c.62.02.9.24.84.65l-.65,3.3,2.95.02c.64-.02.94.23.88.77,0,.62-.3.93-.91.93h-3.38l-1.69,7.65c-.43,1.92-.19,2.93.72,3.02.42.04,1.1-.33,2.04-1.08s2.12-1.84,3.53-3.24c.68-.22,1.02.04,1.02.77,0,.13-.02.26-.07.4-1.59,1.56-3.18,2.93-4.76,4.11-.73.52-1.52.79-2.37.83-1.35-.04-2.07-.9-2.16-2.58,0-.82.21-2.09.63-3.81l2.46-11.13c.11-.41.41-.62.91-.62Z"/><path d="m41.47,17.77c.68-.36,1.1-.21,1.25.47-.86,3.76-1.3,5.8-1.34,6.12s0,.5.15.54c.2.11.76-.22,1.68-.98s2.07-1.83,3.44-3.23c.71-.23,1.07-.03,1.07.62,0,.15-.01.3-.04.44-1.61,1.59-3.21,3.01-4.82,4.25-.62.46-1.32.69-2.11.69-.57-.07-.9-.38-.97-.93s-.04-1.17.09-1.85.39-1.68.77-3.01l-1.48,1.39c-.68.12-1.02-.11-1.02-.69,0-.12.01-.26.04-.42,1.18-1.16,2.28-2.3,3.29-3.43Zm1.83-2.6c.56-.02.87-.33.91-.93-.01-.55-.34-.84-.98-.88-.56.04-.86.32-.88.84-.01.66.3.98.95.97Z"/><path d="m50.7,16.75c.91.07,1.31.25,1.19.53s-.04.62.25,1.02c.55.62,1.04,1.61,1.48,2.95.22.9.3,1.66.23,2.27l2.74-2.62c.7-.21,1.05.02,1.05.7,0,.12-.01.25-.04.4-1.38,1.36-2.3,2.22-2.75,2.59s-.9.72-1.34,1.05-.9.57-1.35.74c-.4.15-.79.23-1.18.23-1.5-.04-2.77-.67-3.81-1.92-.48-.7-.65-1.19-.5-1.47s.35-.43.62-.47.45.06.54.3c.36.75.98,1.37,1.86,1.86.97.41,1.7.38,2.18-.11.61-.74.76-1.69.44-2.87-.33-1.2-.84-2.23-1.55-3.09l-4.17,3.96c-.75-.01-1.06-.38-.93-1.11l5.03-4.96Z"/><path d="m59.82,8.53c.62.02.9.24.84.65l-.65,3.3,2.95.02c.64-.02.94.23.88.77,0,.62-.3.93-.91.93h-3.38l-1.69,7.65c-.43,1.92-.19,2.93.72,3.02.42.04,1.1-.33,2.04-1.08s2.12-1.84,3.53-3.24c.68-.22,1.02.04,1.02.77,0,.13-.02.26-.07.4-1.59,1.56-3.18,2.93-4.76,4.11-.73.52-1.52.79-2.37.83-1.35-.04-2.07-.9-2.16-2.58,0-.82.21-2.09.63-3.81l2.46-11.13c.11-.41.41-.62.91-.62Z"/><path d="m66.8,17.77c.68-.36,1.1-.21,1.25.47-.86,3.76-1.3,5.8-1.34,6.12s0,.5.15.54c.2.11.76-.22,1.68-.98s2.07-1.83,3.44-3.23c.71-.23,1.07-.03,1.07.62,0,.15-.01.3-.04.44-1.61,1.59-3.21,3.01-4.82,4.25-.62.46-1.32.69-2.11.69-.57-.07-.9-.38-.97-.93s-.04-1.17.09-1.85.39-1.68.77-3.01l-1.48,1.39c-.68.12-1.02-.11-1.02-.69,0-.12.01-.26.04-.42,1.18-1.16,2.28-2.3,3.29-3.43Zm1.83-2.6c.56-.02.87-.33.91-.93-.01-.55-.34-.84-.98-.88-.56.04-.86.32-.88.84-.01.66.3.98.95.97Z"/><path d="m76.01,16.91c.36-.12.76-.18,1.2-.18.35,0,.73.04,1.14.12.69.28,1.17.66,1.45,1.12s.42.96.42,1.46-.1.88-.32,1.14-.56.41-1.04.45-.75-.11-.83-.45-.05-.62.11-.84c.43-.36.54-.69.33-.98s-.57-.43-1.07-.44-1.04.14-1.62.44-1.03.65-1.34,1.05-.58.83-.81,1.28-.39.9-.48,1.34-.08.87.04,1.3.45.83.98,1.18c.77.25,1.47.32,2.1.23s1.23-.33,1.8-.7c1.42-1.02,2.78-2.19,4.08-3.52.71-.2,1.07.02,1.07.67,0,.14-.02.29-.05.46-1.38,1.36-2.81,2.57-4.29,3.64-.81.47-1.41.74-1.81.82s-.98.15-1.76.22c-1.07-.01-1.89-.2-2.46-.57s-1-.89-1.27-1.56c-.2-.48-.3-.97-.3-1.46,0-.27.03-.54.09-.81.25-1.02.52-1.75.82-2.21s.62-.88.95-1.27.73-.76,1.2-1.09,1.02-.61,1.68-.84Z"/><path d="m84.69,17.99c.54-.29,1.27-.44,2.2-.45.71.04,1.38.25,1.99.65.08-.43.32-.66.7-.67.48.09.69.38.63.86l-1.2,5.78c-.02.73.3.87.97.42,1.54-1.12,2.99-2.4,4.38-3.83.76-.21,1.14-.01,1.14.6,0,.15-.02.33-.07.53-1.42,1.49-3,2.89-4.75,4.22-.4.34-.84.53-1.32.58-.08.01-.16.02-.23.02-.4,0-.76-.11-1.09-.33-.41-.27-.62-.64-.63-1.11-.63.93-1.67,1.39-3.11,1.39-1.24-.12-2.06-.65-2.44-1.6-.19-.56-.28-1.13-.28-1.71,0-.64.12-1.29.37-1.95.42-1.01.85-1.75,1.28-2.24s.92-.87,1.46-1.16Zm1.09,1.33c-1,.45-1.76,1.37-2.3,2.78-.45,1.37-.26,2.26.56,2.67.71.33,1.48.23,2.29-.29s1.34-1.34,1.59-2.45l.53-2.37c-.63-.67-1.52-.78-2.67-.33Z"/><path d="m101.36,0c2.17.08,3.36,1.58,3.59,4.5-.13,2.99-1.56,6.52-4.29,10.6l-4.08,5.5-.44,1.62c-.18.82-.24,1.47-.2,1.96s.34.76.91.82c.47.05,1.18-.32,2.14-1.09s2.14-1.85,3.53-3.22c.86-.28,1.18.11.98,1.18-1.58,1.52-2.77,2.59-3.58,3.2s-1.42,1.04-1.86,1.28-1.06.38-1.85.4c-.74-.04-1.29-.47-1.65-1.32-.28-.86-.39-1.68-.33-2.48-.49-.33-.74-.63-.74-.9.02-.25.13-.5.33-.77l.91-1.16,3.08-14.1c.74-3.19,1.34-4.98,1.82-5.39s1.05-.62,1.73-.64Zm.28,1.76c-.59-.11-1.04.42-1.35,1.58l-3.34,13.94c.77-1.02,1.69-2.31,2.74-3.86s1.87-2.98,2.45-4.29.94-2.44,1.09-3.41.11-1.83-.12-2.58-.72-1.22-1.47-1.38Z"/><path d="m109.42,0c2.17.08,3.36,1.58,3.59,4.5-.13,2.99-1.56,6.52-4.29,10.6l-4.08,5.5-.44,1.62c-.18.82-.24,1.47-.2,1.96s.34.76.91.82c.47.05,1.18-.32,2.14-1.09s2.14-1.85,3.53-3.22c.86-.28,1.18.11.98,1.18-1.58,1.52-2.77,2.59-3.58,3.2s-1.42,1.04-1.86,1.28-1.06.38-1.85.4c-.74-.04-1.29-.47-1.65-1.32-.28-.86-.39-1.68-.33-2.48-.49-.33-.74-.63-.74-.9.02-.25.13-.5.33-.77l.91-1.16,3.08-14.1c.74-3.19,1.34-4.98,1.82-5.39s1.05-.62,1.73-.64Zm.28,1.76c-.59-.11-1.04.42-1.35,1.58l-3.34,13.94c.77-1.02,1.69-2.31,2.74-3.86s1.87-2.98,2.45-4.29.94-2.44,1.09-3.41.11-1.83-.12-2.58-.72-1.22-1.47-1.38Z"/><path d="m114.61,18.3l-.76,3.39c-.45,2.03-.52,3.18-.23,3.46.47.32,1.24-.04,2.3-1.05.62-.6,1.35-2.57,2.2-5.92.12-.41.38-.62.79-.62.56.05.82.23.77.54l-1.51,5.92c1.1-.77,2.33-1.9,3.67-3.38.76-.2,1.14.04,1.14.7,0,.12-.01.26-.04.42-1.66,1.57-3.46,3.09-5.38,4.55l-2,8.21c-.3,1.22-.77,2.2-1.39,2.94s-1.28,1.13-1.97,1.15c-.49-.05-.9-.3-1.23-.75s-.55-.91-.68-1.39-.19-.99-.2-1.54.05-1.14.19-1.76.5-1.37,1.07-2.23l4.9-5.19.14-.47c-.75.76-1.4,1.25-1.95,1.46s-1.07.22-1.55.02c-.61-.32-.96-.9-1.05-1.76-.11-1.14.12-2.5.67-4.08l-1.44,1.41c-.71.09-1.07-.16-1.07-.77,0-.12.01-.25.04-.39,1.22-1.15,2.33-2.26,3.32-3.34.16-.18.38-.25.63-.23.48.07.68.29.6.67Zm-1.14,12.11c-.76,1.02-1.27,1.82-1.52,2.41s-.41,1.24-.48,1.95.05,1.32.36,1.81.67.56,1.07.19.82-1.17,1.26-2.43l1.81-6.59-2.5,2.65Z"/></g></svg>